<svg xmlns="http://www.w3.org/2000/svg" viewBox="0 0 125.73 175.03">
    <g id="Layer_2" data-name="Layer 2">
        <g id="Layer_2_copy_2" data-name="Layer 2 copy 2">
            <path
                d="M74.2,79.91s0,0,0,0a.63.63,0,0,0-.11-.12L74,79.69h0l-.11-.05a.57.57,0,0,0-.18,0H51.88l-.18.26s0,0,0,0l-.2.31-7.64,11-.14.22a.62.62,0,0,0-.11.17.43.43,0,0,0-.05.12.88.88,0,0,0,0,.16v0a.78.78,0,0,0,0,.14.89.89,0,0,0,.08.17.57.57,0,0,0,.18.2.85.85,0,0,0,.26.11h.27a.16.16,0,0,0,.09,0,.54.54,0,0,0,.18-.11.23.23,0,0,0,.07-.07l0-.05L45,91.9l7.61-11H73.79l.07,0a.42.42,0,0,0,.14-.06,1,1,0,0,0,.15-.14.34.34,0,0,0,.09-.14,0,0,0,0,1,0,0,.8.8,0,0,0,0-.26A.67.67,0,0,0,74.2,79.91Zm0,0s0,0,0,0a.63.63,0,0,0-.11-.12L74,79.69h0l-.11-.05a.57.57,0,0,0-.18,0H51.88l-.18.26s0,0,0,0l-.2.31-7.64,11-.14.22a.62.62,0,0,0-.11.17.43.43,0,0,0-.05.12.88.88,0,0,0,0,.16v0a.78.78,0,0,0,0,.14.89.89,0,0,0,.08.17.57.57,0,0,0,.18.2.85.85,0,0,0,.26.11h.27a.16.16,0,0,0,.09,0,.54.54,0,0,0,.18-.11.23.23,0,0,0,.07-.07l0-.05L45,91.9l7.61-11H73.79l.07,0a.42.42,0,0,0,.14-.06,1,1,0,0,0,.15-.14.34.34,0,0,0,.09-.14,0,0,0,0,1,0,0,.8.8,0,0,0,0-.26A.67.67,0,0,0,74.2,79.91Zm29.69,14.56-.06-.73c0-.19,0-.38,0-.57A72.05,72.05,0,0,0,97.64,69l-.06-.12c-.65-1.39-1.35-2.76-2.08-4.08l0-.08a.3.3,0,0,0-.06-.11C90,55,82.33,48,73.87,44.84a30.11,30.11,0,0,0-18.69-.78c-10,2.81-18.81,10.7-24.82,22.23l-.15.28c-.07.14-.13.26-.19.4a70.19,70.19,0,0,0-7,24.16,78.93,78.93,0,0,0-.44,8.43A77.11,77.11,0,0,0,23.75,113v0a.22.22,0,0,0,0,.08l0,.08c.13.81.29,1.62.48,2.49a68.07,68.07,0,0,0,3.18,10.76l0,.12a60.46,60.46,0,0,0,4.35,9,.05.05,0,0,1,0,0c4.32,7.28,9.88,13,16.14,16.5l.32.18h0a31.61,31.61,0,0,0,9.41,3.43,29.68,29.68,0,0,0,5.57.52,30.4,30.4,0,0,0,7-.83c9.34-2.25,17.87-9.06,24-19.13a61.74,61.74,0,0,0,4.06-8,.49.49,0,0,0,0-.11,67.6,67.6,0,0,0,3.45-10.5c.22-.91.42-1.8.59-2.67l0-.07v0a77.83,77.83,0,0,0,1.51-15.33C104.05,97.84,104,96.13,103.89,94.47Zm-2.63,20.18h0l0,.06c-.1.52-.22,1.05-.34,1.59-.08.35-.16.71-.25,1.07a1.6,1.6,0,0,1-.05.21,68.32,68.32,0,0,1-3.35,10.16l0,.05a57.6,57.6,0,0,1-3.78,7.44,3.37,3.37,0,0,1-.19.32c-.2.33-.4.66-.62,1a42.45,42.45,0,0,1-15,14.6c-.38.2-.76.41-1.16.6A30.28,30.28,0,0,1,70,154.1a28.73,28.73,0,0,1-12,.3,30.11,30.11,0,0,1-8.43-3l-.26-.13-.34-.19-.54-.31a43,43,0,0,1-14.86-15c-.21-.33-.41-.66-.61-1l-.18-.31a61.68,61.68,0,0,1-4.08-8.5l0-.07a65.13,65.13,0,0,1-3-9.81l-.18-.82c0-.17-.07-.34-.11-.5-.14-.68-.26-1.34-.37-2l0-.06v0a77.75,77.75,0,0,1-1.13-13.19,75.52,75.52,0,0,1,.39-7.68,6,6,0,0,1,.06-.61c0-.24.05-.46.08-.7a68.81,68.81,0,0,1,6.76-23c.06-.12.12-.25.19-.37.15-.31.32-.61.48-.91A49,49,0,0,1,41.91,53.11,37.35,37.35,0,0,1,45,50.59L46,49.83a32.2,32.2,0,0,1,9.51-4.51,28.75,28.75,0,0,1,17.89.75,32.12,32.12,0,0,1,6.64,3.41c.36.23.72.48,1.08.74A46.39,46.39,0,0,1,94.2,65.16l.1.21c.58,1,1.15,2.12,1.69,3.24l.42.89,0,.07h0c0,.12.11.23.16.36a70.41,70.41,0,0,1,5.86,23.18l.06.72h0c0,.19,0,.38,0,.57.12,1.68.18,3.4.18,5.14A76.91,76.91,0,0,1,101.26,114.65ZM74.19,79.89a.63.63,0,0,0-.11-.12L74,79.69h0l-.11-.05a.57.57,0,0,0-.18,0H51.88l-.18.26s0,0,0,0l-.2.31-7.64,11-.14.22a.62.62,0,0,0-.11.17.43.43,0,0,0-.05.12.88.88,0,0,0,0,.16v0a.78.78,0,0,0,0,.14.89.89,0,0,0,.08.17.57.57,0,0,0,.18.2.85.85,0,0,0,.26.11h.27a.16.16,0,0,0,.09,0,.54.54,0,0,0,.18-.11.23.23,0,0,0,.07-.07l0-.05L45,91.9l7.61-11H73.79l.07,0a.42.42,0,0,0,.14-.06,1,1,0,0,0,.15-.14.34.34,0,0,0,.09-.14,0,0,0,0,1,0,0,.8.8,0,0,0,0-.26.67.67,0,0,0-.1-.34S74.19,79.9,74.19,79.89Z" />
            <path
                d="M82.07,92.45,82,92.33,74.39,80.2l-.19-.29s0,0,0,0L74,79.6H51.88l-.18.26s0,0,0,0l-.2.31-7.64,11-.14.22a.62.62,0,0,0-.11.17.43.43,0,0,0-.05.12.88.88,0,0,0,0,.16v0a.78.78,0,0,0,0,.14.89.89,0,0,0,.08.17.57.57,0,0,0,.18.2.85.85,0,0,0,.26.11h.24l.11,0h0a.54.54,0,0,0,.18-.11.23.23,0,0,0,.07-.07l0-.05L45,91.9l7.61-11H73.29l7.29,11.63,0,0s0,0,0,0l-.06.06s0,0,0,0a.59.59,0,0,0-.13.36.54.54,0,0,0,.08.33l.06.1.11.1.08.06a1,1,0,0,0,.3.08h0a.6.6,0,0,0,.41-.15l.09-.07.33-.27a.45.45,0,0,0,.13-.11l.38-.3Zm0,0L82,92.33,74.39,80.2l-.19-.29s0,0,0,0L74,79.6H51.88l-.18.26s0,0,0,0l-.2.31-7.64,11-.14.22a.62.62,0,0,0-.11.17.43.43,0,0,0-.05.12.88.88,0,0,0,0,.16v0a.78.78,0,0,0,0,.14.89.89,0,0,0,.08.17.57.57,0,0,0,.18.2.85.85,0,0,0,.26.11h.24l.11,0h0a.54.54,0,0,0,.18-.11.23.23,0,0,0,.07-.07l0-.05L45,91.9l7.61-11H73.29l7.29,11.63,0,0s0,0,0,0l-.06.06s0,0,0,0a.59.59,0,0,0-.13.36.54.54,0,0,0,.08.33l.06.1.11.1.08.06a1,1,0,0,0,.3.08h0a.6.6,0,0,0,.41-.15l.09-.07.33-.27a.45.45,0,0,0,.13-.11l.38-.3ZM73.38,41a.65.65,0,0,1-.39-.6v-.89a32.43,32.43,0,0,0-17-.59v.82a.66.66,0,0,1-.48.64,30.81,30.81,0,0,1,7.88-1A31.28,31.28,0,0,1,73.38,41ZM26.93,67.32a.66.66,0,0,1,0,.48c.11-.27.24-.54.36-.81A.63.63,0,0,1,26.93,67.32Zm80.53,26.55a78,78,0,0,0-7-28.06l-.18-.41-.42-.85A55.74,55.74,0,0,0,87,47.5l-.78-.67a3.92,3.92,0,0,0-.33-.27A37.9,37.9,0,0,0,74.3,39.89l-.45-.16c-.28-.1-.57-.19-.86-.27a32.43,32.43,0,0,0-17-.59c-.27.06-.54.12-.82.2l-.48.13a37.92,37.92,0,0,0-15.38,8.71c-.11.08-.21.19-.32.28l-.72.68A57.92,57.92,0,0,0,26.14,66.36h0a.38.38,0,0,0-.06.13q-.2.39-.36.78c0,.13-.11.25-.17.39a77.26,77.26,0,0,0-6,23.35,83.19,83.19,0,0,0-.43,8.54,85.58,85.58,0,0,0,.8,11.7c0,.16.05.33.07.49s.08.57.13.85a75.25,75.25,0,0,0,6,20.18l.51,1.08.16.32c7.14,14.61,18.36,24.2,30.9,26.44l.53.1.78.11a32,32,0,0,0,7.66.13c.42,0,.84-.09,1.25-.15l.34-.05c12.33-1.88,23.55-10.93,30.88-24.91a3.07,3.07,0,0,0,.17-.31c.18-.34.36-.7.53-1a74.29,74.29,0,0,0,6.48-19.91l.15-.85c0-.16,0-.32.07-.49a83.71,83.71,0,0,0,1.11-13.68C107.66,97.63,107.59,95.71,107.46,93.87Zm-9.27,41-.06.13c-7.21,13.86-18.28,22.78-30.38,24.5l-.09,0a32,32,0,0,1-9.21-.11c-12.42-2-23.58-11.54-30.63-26.14a74.14,74.14,0,0,1-6.51-21.72.06.06,0,0,0,0,0,86.15,86.15,0,0,1-.84-12,83.38,83.38,0,0,1,.42-8.41,76.18,76.18,0,0,1,6-23.34h0c.11-.27.24-.54.36-.81a0,0,0,0,0,0,0,56.26,56.26,0,0,1,12.6-17.82,36.73,36.73,0,0,1,15.6-8.81h0a30.81,30.81,0,0,1,7.88-1,31.28,31.28,0,0,1,10,1.64l.14,0a36.92,36.92,0,0,1,11.89,6.84A54.38,54.38,0,0,1,99,65.92a.16.16,0,0,0,0,.06,71.36,71.36,0,0,1,4.8,13.37,79.51,79.51,0,0,1,2.25,13.9c0,.23,0,.47.06.71s0,.39,0,.59c.11,1.63.15,3.32.15,5a84.56,84.56,0,0,1-1.15,13.93s0,0,0,0A72.63,72.63,0,0,1,98.19,134.89ZM82,92.33,74.39,80.2l-.19-.29s0,0,0,0L74,79.6H51.88l-.18.26s0,0,0,0l-.2.31-7.64,11-.14.22a.62.62,0,0,0-.11.17.43.43,0,0,0-.05.12.88.88,0,0,0,0,.16v0a.78.78,0,0,0,0,.14.89.89,0,0,0,.08.17.57.57,0,0,0,.18.2.85.85,0,0,0,.26.11h.24l.11,0h0a.54.54,0,0,0,.18-.11.23.23,0,0,0,.07-.07l0-.05L45,91.9l7.61-11H73.29l7.29,11.63,0,0s0,0,0,0l-.06.06s0,0,0,0a.59.59,0,0,0-.13.36.54.54,0,0,0,.08.33l.06.1.11.1.08.06a1,1,0,0,0,.3.08h0a.6.6,0,0,0,.41-.15l.09-.07.33-.27a.45.45,0,0,0,.13-.11l.38-.3-.23-.37Z" />
            <path
                d="M73.65,30.94a.68.68,0,0,1-.38-.12.66.66,0,0,1-.16-.91A20.7,20.7,0,0,0,76.55,18.1c0-9.26-5.31-16.8-11.84-16.8S52.87,8.84,52.87,18.1a21.11,21.11,0,0,0,3,11.18.64.64,0,0,1,.12.38.65.65,0,0,1-.65.65H55l-.19-.3A22.44,22.44,0,0,1,51.57,18.1c0-10,5.89-18.1,13.14-18.1S77.85,8.12,77.85,18.1a22,22,0,0,1-3.67,12.56A.66.66,0,0,1,73.65,30.94Z" />
            <path
                d="M74.7,12.05a8.59,8.59,0,0,0-1.53-2.51c-1-1-1.71-.95-2.07-.81s-1,.61-.91,2a8.46,8.46,0,0,0,.67,2.86,8.25,8.25,0,0,0,1.53,2.5A2.24,2.24,0,0,0,74,17a1,1,0,0,0,.46-.09C75.77,16.38,75.5,14,74.7,12.05ZM74,15.71c-.29-.06-1.18-.85-1.89-2.59s-.64-2.93-.47-3.17c.28.06,1.17.84,1.89,2.59S74.12,15.46,74,15.71Z" />
            <path
                d="M58.65,8.7A1.33,1.33,0,0,0,58,8.53c-1.13,0-2.48,1.43-3.37,3-1.07,1.84-1.65,4.15-.42,4.87a1.28,1.28,0,0,0,.63.16c1.13,0,2.48-1.41,3.38-3C59.29,11.72,59.87,9.41,58.65,8.7ZM57.1,12.92c-1,1.63-1.93,2.28-2.22,2.31a.78.78,0,0,1-.05-.32,6,6,0,0,1,.94-2.76c.94-1.63,1.93-2.29,2.21-2.31C58.12,10.11,58,11.29,57.1,12.92Z" />
            <path
                d="M73.65,41a.66.66,0,0,1-.66-.65V30.29a.67.67,0,0,1,.66-.66.66.66,0,0,1,.65.66V40.35A.65.65,0,0,1,73.65,41Z" />
            <path d="M55.36,40.35a.65.65,0,0,1-.65-.65V29h.65a.65.65,0,0,1,.65.65v10A.65.65,0,0,1,55.36,40.35Z" />
            <path
                d="M122,59.68h-.09c-3.26-.45-5.62-2.5-5.73-5-.09-1.92,1.15-3.71,3.32-4.79a.65.65,0,1,1,.58,1.16c-1.69.85-2.67,2.18-2.6,3.57.08,1.84,2,3.39,4.61,3.75a.65.65,0,0,1,.55.74A.65.65,0,0,1,122,59.68Z" />
            <path
                d="M118,51.07c-3.83,0-7-2.21-7.09-5.08a3.93,3.93,0,0,1,.2-1.44.64.64,0,0,1,.81-.43.65.65,0,0,1,.43.82,2.85,2.85,0,0,0-.14,1c.1,2.25,2.87,4,6.16,3.82a9,9,0,0,0,1.2-.14.66.66,0,0,1,.76.52.64.64,0,0,1-.52.76,9.85,9.85,0,0,1-1.38.16Z" />
            <path
                d="M99.64,66.33a.66.66,0,0,1-.44-.16.65.65,0,0,1,0-.92c7.61-8.45,19.12-6.46,22.16-5.74,0-.18,0-.35,0-.52a13.15,13.15,0,0,0-2.1-8.15l-.13-.19a14.65,14.65,0,0,0-5.83-4.85c-.59-.15-1.18-.3-1.75-.42A40.82,40.82,0,0,0,86.13,47.9a.65.65,0,0,1-.88-.27.66.66,0,0,1,.28-.88,41.26,41.26,0,0,1,26.29-2.64c.6.13,1.22.28,1.85.45l.07,0a15.64,15.64,0,0,1,6.44,5.31l.15.23a14.4,14.4,0,0,1,2.32,8.94c0,.43-.06.89-.12,1.35l-.1.77-.74-.23c-.13,0-13.35-4-21.57,5.17A.64.64,0,0,1,99.64,66.33Z" />
            <path
                d="M97,70a.64.64,0,0,1-.59-.38l0-.08L94.2,65.16V65a.65.65,0,0,1,1.25-.26L97.63,69a.64.64,0,0,1-.32.86A.66.66,0,0,1,97,70Z" />
            <path
                d="M120.49,146.57a.67.67,0,0,1-.52-.25c-2-2.6-2.3-5.72-.65-7.58,1.28-1.44,3.42-1.86,5.73-1.12a.65.65,0,0,1-.4,1.24c-1.8-.58-3.43-.3-4.35.75-1.23,1.38-.94,3.81.7,5.9a.66.66,0,0,1-.11.92A.67.67,0,0,1,120.49,146.57Z" />
            <path
                d="M124.89,138.62a.64.64,0,0,1-.35-.1,9.31,9.31,0,0,1-1.11-.85c-3-2.66-3.85-6.64-1.88-8.87a4,4,0,0,1,1.15-.9.65.65,0,0,1,.61,1.15,2.7,2.7,0,0,0-.78.61c-1.5,1.69-.71,4.85,1.76,7a9.8,9.8,0,0,0,1,.74.65.65,0,0,1-.36,1.19Z" />
            <path
                d="M119.3,147.75l-.37-.67c-.07-.13-7.21-12.78-20.11-11.19a.65.65,0,0,1-.16-1.29c12-1.48,19.26,8.47,21,11.18.13-.11.26-.22.38-.34a13.13,13.13,0,0,0,4.17-7.32v-.05l0-.19a14.49,14.49,0,0,0-.82-7.52c-.32-.54-.64-1.05-1-1.52a41.78,41.78,0,0,0-16.91-14.63.65.65,0,0,1-.32-.86.66.66,0,0,1,.87-.32,43,43,0,0,1,17.44,15.08c.34.5.68,1,1,1.62l0,.06a15.68,15.68,0,0,1,.93,8.29c0,.07,0,.15-.05.24a14.33,14.33,0,0,1-4.56,8.07c-.34.32-.68.61-1,.89Z" />
            <path
                d="M97.85,128.64a.63.63,0,0,1-.19,0,.64.64,0,0,1-.43-.81l4-13.15h0a.66.66,0,0,1,.63-.47.65.65,0,0,1,.65.65v.11l0,.11-4,13.13A.64.64,0,0,1,97.85,128.64Z" />
            <path
                d="M3.68,61.21a.65.65,0,0,1-.09-1.29C6.22,59.55,8.11,58,8.2,56.16c.06-1.39-.91-2.72-2.61-3.56a.65.65,0,0,1,.58-1.17c2.17,1.08,3.42,2.87,3.33,4.79-.11,2.48-2.47,4.54-5.73,5Z" />
            <path
                d="M7.75,52.6H7.29a10,10,0,0,1-1.38-.15.66.66,0,0,1-.52-.76.65.65,0,0,1,.76-.52,9,9,0,0,0,1.21.13,7.37,7.37,0,0,0,4.36-1.07,3.52,3.52,0,0,0,1.79-2.75,2.76,2.76,0,0,0-.13-1,.65.65,0,0,1,1.24-.4,3.92,3.92,0,0,1,.19,1.44,4.79,4.79,0,0,1-2.38,3.79A8.62,8.62,0,0,1,7.75,52.6Z" />
            <path
                d="M26.32,68.19a.63.63,0,0,1-.49-.22C17.61,58.43,4.12,62.45,4,62.49l-.75.23L3.15,62c-.06-.46-.1-.92-.12-1.35a14.3,14.3,0,0,1,2.31-8.94l.16-.24a15.57,15.57,0,0,1,6.43-5.3l.07,0c.63-.16,1.26-.32,1.86-.45a42.32,42.32,0,0,1,25.86,2.44A.66.66,0,0,1,40,49a.65.65,0,0,1-.87.31,41,41,0,0,0-25-2.34c-.57.12-1.17.26-1.76.42a14.55,14.55,0,0,0-5.81,4.83,2.43,2.43,0,0,0-.14.2,13.12,13.12,0,0,0-2.1,8.16l0,.52c3.09-.73,14.85-2.76,22.45,6.07a.64.64,0,0,1-.07.92A.66.66,0,0,1,26.32,68.19Z" />
            <path
                d="M5,144.25a.65.65,0,0,1-.51-1.06c1.7-2.05,2.06-4.47.87-5.89-.89-1.07-2.51-1.39-4.32-.86A.65.65,0,0,1,.2,136a.66.66,0,0,1,.44-.81c2.33-.67,4.46-.19,5.69,1.29,1.6,1.9,1.24,5-.86,7.55A.67.67,0,0,1,5,144.25Z" />
            <path
                d="M.78,136.2A.65.65,0,0,1,.44,135a9.61,9.61,0,0,0,1-.71,7,7,0,0,0,2.63-4.55,3.25,3.25,0,0,0-.67-2.43,2.8,2.8,0,0,0-.77-.64.65.65,0,0,1,.65-1.13,4.38,4.38,0,0,1,1.12.93,4.53,4.53,0,0,1,1,3.39,8.39,8.39,0,0,1-3.1,5.43,9.21,9.21,0,0,1-1.13.82A.61.61,0,0,1,.78,136.2Z" />
            <path
                d="M6.1,145.48l-.59-.5c-.37-.32-.7-.62-1-.92a14.3,14.3,0,0,1-4.33-8.15,1.73,1.73,0,0,1,0-.27,15.57,15.57,0,0,1,1.16-8.27l0-.06c.38-.59.73-1.11,1.07-1.59a43,43,0,0,1,18-14.66.66.66,0,0,1,.86.35.64.64,0,0,1-.35.85A41.65,41.65,0,0,0,3.47,126.47c-.33.45-.66,1-1,1.5a14.52,14.52,0,0,0-1,7.49l0,.22a13.16,13.16,0,0,0,4,7.45l.38.36c1.83-2.68,9.46-12.53,21.54-10.56a.65.65,0,0,1,.53.75.64.64,0,0,1-.74.54c-13-2.13-20.56,10.46-20.63,10.59Z" />
            <path
                d="M28.07,126.87a.65.65,0,0,1-.63-.48l-3.66-13.25a.65.65,0,0,1,1.21-.48l0,.12L28.7,126a.65.65,0,0,1-.46.8A.51.51,0,0,1,28.07,126.87Z" />
            <path d="M46.48,68.1h0l-15.81-.58a.65.65,0,1,1,0-1.3h.13l15.69.58a.65.65,0,0,1,0,1.3Z" />
            <path d="M79.17,68.19a.65.65,0,0,1,.06-1.3h0l17.3,1.31a.64.64,0,0,1,.6.69.65.65,0,0,1-.67.61" />
            <path d="M26.69,67.37h0a.65.65,0,0,1,0-1.3.66.66,0,0,1,.66.65A.65.65,0,0,1,26.69,67.37Z" />
            <path
                d="M44.17,92.52h0l-20.48-.67a.64.64,0,0,1-.63-.67.66.66,0,0,1,.67-.63l20.48.67a.64.64,0,0,1,.63.67A.65.65,0,0,1,44.17,92.52Z" />
            <path
                d="M103.83,93.74l.06.73-.73,0-.6,0-21.25-.69h-.37a1,1,0,0,1-.3-.08l-.08-.06-.11-.1-.06-.1a.54.54,0,0,1-.08-.33.59.59,0,0,1,.13-.36s0,0,0,0l.06-.06s0,0,.06-.06,0,0,0,0l.12,0a.28.28,0,0,1,.12,0l.13,0,1.07,0h0l20.4.67.73,0,.58,0C103.8,93.36,103.82,93.55,103.83,93.74Z" />
            <path d="M106.83,93.92a.65.65,0,0,1-.63.63c0-.2,0-.39,0-.59s0-.48-.06-.71h.08A.66.66,0,0,1,106.83,93.92Z" />
            <path d="M100.78,117.59h-.24l-18.15-.52a.65.65,0,0,1,0-1.3l18.36.53a.65.65,0,0,1,0,1.3Z" />
            <path d="M43.6,116.64h0l-18.7-.49a.66.66,0,0,1,0-1.31h.21l18.49.49a.65.65,0,0,1,0,1.3Z" />
            <path d="M43.9,136h0l-11.49-.13a.66.66,0,0,1-.65-.66.64.64,0,0,1,.66-.64l11.5.13a.65.65,0,0,1,0,1.3Z" />
            <path
                d="M93.81,136.54h0l-12.18-.14a.65.65,0,0,1-.65-.65.66.66,0,0,1,.65-.65h0l12.19.14a.65.65,0,0,1,.64.66A.64.64,0,0,1,93.81,136.54Z" />
            <path
                d="M50.83,59.54a.67.67,0,0,1-.56-.31L44.59,50a.65.65,0,0,1,1.11-.69l5.68,9.24a.64.64,0,0,1-.21.89A.61.61,0,0,1,50.83,59.54Z" />
            <path
                d="M46.48,68.1a.65.65,0,0,1-.58-.95l4.35-8.56a.64.64,0,0,1,.87-.28.65.65,0,0,1,.29.87l-4.35,8.56A.65.65,0,0,1,46.48,68.1Z" />
            <path
                d="M52.22,80.91a.66.66,0,0,1-.6-.38L45.88,67.71a.66.66,0,0,1,.33-.86.65.65,0,0,1,.86.33L52.81,80a.65.65,0,0,1-.32.86A.66.66,0,0,1,52.22,80.91Z" />
            <path
                d="M44.17,92.52a.7.7,0,0,1-.37-.11.66.66,0,0,1-.16-.91l8-11.61a.66.66,0,0,1,.91-.17.65.65,0,0,1,.16.91l-8,11.61A.66.66,0,0,1,44.17,92.52Z" />
            <path
                d="M52.22,105.75a.67.67,0,0,1-.56-.31l-8-13.23a.64.64,0,0,1,.22-.89.65.65,0,0,1,.89.21l8.05,13.23a.67.67,0,0,1-.22.9A.72.72,0,0,1,52.22,105.75Z" />
            <path
                d="M43.59,116.64a.61.61,0,0,1-.4-.14.65.65,0,0,1-.11-.91l8.63-10.9a.65.65,0,0,1,1,.81l-8.62,10.89A.64.64,0,0,1,43.59,116.64Z" />
            <path
                d="M52.22,127.12a.64.64,0,0,1-.5-.23L43.09,116.4a.64.64,0,0,1,.09-.91.65.65,0,0,1,.92.09l8.62,10.48a.64.64,0,0,1-.09.91A.63.63,0,0,1,52.22,127.12Z" />
            <path d="M43.9,136a.66.66,0,0,1-.48-1.1L51.74,126a.65.65,0,1,1,.95.89l-8.32,8.84A.64.64,0,0,1,43.9,136Z" />
            <path
                d="M52.22,146.47a.65.65,0,0,1-.51-.24l-8.32-10.51a.64.64,0,0,1,.1-.91.65.65,0,0,1,.92.1l8.32,10.51a.64.64,0,0,1-.11.91A.61.61,0,0,1,52.22,146.47Z" />
            <path
                d="M48.65,152.34a.58.58,0,0,1-.33-.1.64.64,0,0,1-.22-.89l3.56-5.87a.66.66,0,0,1,1.12.68L49.21,152A.64.64,0,0,1,48.65,152.34Z" />
            <path d="M75,59.54a.65.65,0,0,1-.56-1l5.68-9.24a.65.65,0,0,1,1.11.69l-5.68,9.23A.65.65,0,0,1,75,59.54Z" />
            <path
                d="M79.39,68.1a.64.64,0,0,1-.58-.36l-4.35-8.56a.64.64,0,0,1,.28-.87.65.65,0,0,1,.88.28L80,67.15a.66.66,0,0,1-.29.88A.59.59,0,0,1,79.39,68.1Z" />
            <path
                d="M73.65,80.91a.66.66,0,0,1-.27-.06.64.64,0,0,1-.33-.86l5.74-12.81a.65.65,0,0,1,1.19.53L74.24,80.53A.65.65,0,0,1,73.65,80.91Z" />
            <path
                d="M81.44,93.33a.66.66,0,0,1-.55-.3L73.09,80.6a.65.65,0,0,1,.21-.89.66.66,0,0,1,.9.2L82,92.33a.66.66,0,0,1-.2.9A.64.64,0,0,1,81.44,93.33Z" />
            <path
                d="M73.65,105.75a.59.59,0,0,1-.34-.1.64.64,0,0,1-.22-.89l7.31-12a.66.66,0,0,1,1.12.68l-7.32,12A.64.64,0,0,1,73.65,105.75Z" />
            <path
                d="M82.27,116.64a.63.63,0,0,1-.51-.25L73.14,105.5a.64.64,0,0,1,.1-.91.65.65,0,0,1,.92.1l8.62,10.9a.64.64,0,0,1-.11.91A.61.61,0,0,1,82.27,116.64Z" />
            <path
                d="M73.65,127.12a.66.66,0,0,1-.42-.15.64.64,0,0,1-.09-.91l8.63-10.48a.65.65,0,0,1,1,.82l-8.62,10.49A.67.67,0,0,1,73.65,127.12Z" />
            <path
                d="M82,136a.64.64,0,0,1-.48-.21l-8.32-8.84a.65.65,0,0,1,0-.92.64.64,0,0,1,.92,0l8.32,8.84a.64.64,0,0,1,0,.92A.62.62,0,0,1,82,136Z" />
            <path
                d="M73.65,146.47a.62.62,0,0,1-.41-.14.64.64,0,0,1-.1-.91l8.32-10.51a.64.64,0,0,1,.91-.1.65.65,0,0,1,.11.91l-8.32,10.51A.65.65,0,0,1,73.65,146.47Z" />
            <path
                d="M77.21,152.34a.65.65,0,0,1-.56-.32l-3.56-5.86a.64.64,0,0,1,.22-.89.65.65,0,0,1,.89.21l3.57,5.87a.65.65,0,0,1-.22.89A.61.61,0,0,1,77.21,152.34Z" />
            <path d="M73.65,105.75H52.22a.65.65,0,1,1,0-1.3H73.65a.65.65,0,0,1,0,1.3Z" />
            <path d="M73.65,80.91H52.22a.65.65,0,0,1,0-1.3H73.65a.65.65,0,1,1,0,1.3Z" />
            <path d="M75,59.54H50.83a.65.65,0,0,1,0-1.3H75a.65.65,0,0,1,0,1.3Z" />
            <path d="M73.65,127.12H52.22a.65.65,0,1,1,0-1.3H73.65a.65.65,0,1,1,0,1.3Z" />
            <path d="M73.65,146.47H52.22a.65.65,0,1,1,0-1.3H73.65a.65.65,0,1,1,0,1.3Z" />
            <path
                d="M56.44,175a.58.58,0,0,1-.26-.06.65.65,0,0,1-.34-.85c1.53-3.53,2.15-8.25,1.85-14A.65.65,0,1,1,59,160c.32,6-.34,10.88-2,14.6A.64.64,0,0,1,56.44,175Z" />
            <path
                d="M56.43,175a.67.67,0,0,1-.47-.2.65.65,0,0,1,0-.92l.08-.07c.07,0,6.39-4.52,11.2-14a.65.65,0,0,1,1.16.59,42,42,0,0,1-11.6,14.44A.61.61,0,0,1,56.43,175Z" />
        </g>
    </g>
</svg>