<svg xmlns="http://www.w3.org/2000/svg" viewBox="0 0 152.18 95.99"><defs><style>.cls-1{fill:none;stroke:#000;stroke-miterlimit:10;}</style></defs><g id="Layer_2" data-name="Layer 2"><g id="Layer_3_copy" data-name="Layer 3 copy"><circle class="cls-1" cx="75.55" cy="17.23" r="4.57"/><circle class="cls-1" cx="75.55" cy="17.23" r="2.77"/><path d="M142,55.49l-.94-.23c-.47-.11-11.44-2.83-15.38-6.45-4.38-4-4.08-8.35-2-10.68a5.9,5.9,0,0,1,4.72-1.84,9.94,9.94,0,0,1,6.09,2.88h0c4.13,3.8,7.09,14.91,7.21,15.38ZM124.62,38.83l-.07.09a4.71,4.71,0,0,0-1.14,3.92,8.76,8.76,0,0,0,3,5.12c3.06,2.82,11.11,5.17,13.89,5.92-.81-2.79-3.39-10.91-6.6-13.86h0a8.75,8.75,0,0,0-5.37-2.57A4.76,4.76,0,0,0,124.62,38.83Z"/><path d="M124.77,39.23c-1.77,1.83-6.2.23-10.31-3.74s-5.85-8.33-4.08-10.17,6.2-.23,10.3,3.74S126.54,37.39,124.77,39.23Zm-13.56-13.1c-1.09,1.13.31,4.91,4.06,8.53s7.58,4.89,8.67,3.76-.31-4.91-4.06-8.53S112.3,25,111.21,26.13Z"/><path d="M110.68,25.61a5.87,5.87,0,1,1-.15-8.3A5.87,5.87,0,0,1,110.68,25.61Zm-7.61-7.35a4.71,4.71,0,1,0,6.66-.12A4.71,4.71,0,0,0,103.07,18.26Z"/><path d="M112.12,21.31a.54.54,0,0,1-.39.17,5.88,5.88,0,0,1-5.83-4.08,5.61,5.61,0,0,1-.23-1.08.58.58,0,1,1,1.15-.14,4.2,4.2,0,0,0,.18.87,4.78,4.78,0,0,0,1.22,2,4.71,4.71,0,0,0,3.46,1.32.57.57,0,0,1,.6.55A.55.55,0,0,1,112.12,21.31Z"/><path d="M104.64,17.14a.58.58,0,0,1-.71.09,10.15,10.15,0,0,1-4.65-6.34c-1-3.49-.47-7,1.34-8.83l0,0a.58.58,0,0,1,.82,0,.59.59,0,0,1,0,.82l0,0c-1.51,1.56-1.94,4.65-1.07,7.71a9.14,9.14,0,0,0,4.1,5.64l.07,0,.07.06A.58.58,0,0,1,104.64,17.14Z"/><path d="M102.05,19.76a.59.59,0,0,1-.94-.17c-.85-1.87-3.18-3.52-5.94-4.21-3.35-.83-6.72-.1-8,1.75a.57.57,0,1,1-.94-.66c1.57-2.26,5.38-3.17,9.24-2.21,3.13.78,5.71,2.64,6.71,4.86A.58.58,0,0,1,102.05,19.76Z"/><path d="M106.59,27.21a.55.55,0,0,1-.44.18.58.58,0,0,1-.55-.61A4.69,4.69,0,0,0,101.89,22a4,4,0,0,0-.73-.1.58.58,0,0,1,0-1.16,5.3,5.3,0,0,1,.94.13,5.84,5.84,0,0,1,4.62,6A.57.57,0,0,1,106.59,27.21Z"/><path d="M130.47,21a5.94,5.94,0,0,1-1.81,1.23l-.09,0a10.11,10.11,0,0,1-6.71-.43c-1.09,2.24-4.78,4.79-5.24,5.1a.58.58,0,0,1-.65-1c1.27-.86,4.64-3.45,5-5.07l.18-.8.69.43a8.8,8.8,0,0,0,6.38.63c.3-.15,2.22-1.14,1.8-2.07a.58.58,0,0,1,.29-.76.59.59,0,0,1,.77.29A2.1,2.1,0,0,1,130.47,21Z"/><path d="M135.6,25.13a5.94,5.94,0,0,1-1.81,1.23l-.09,0A10.11,10.11,0,0,1,127,26c-1.08,2.24-4.78,4.79-5.24,5.1a.58.58,0,0,1-.65-1c1.27-.86,4.64-3.45,5-5.07l.18-.79.69.42a8.8,8.8,0,0,0,6.38.63c.3-.15,2.22-1.14,1.8-2.07a.58.58,0,0,1,.29-.76.59.59,0,0,1,.77.29A2.1,2.1,0,0,1,135.6,25.13Z"/><path d="M151.3,29.83a9.57,9.57,0,0,1-4.38,2.11l-.09,0a17.36,17.36,0,0,1-11.39-3.52c-2.42,3.51-10.63,6.74-11,6.88a.58.58,0,0,1-.75-.33.59.59,0,0,1,.33-.75c2.55-1,9.45-4.18,10.75-6.94l.35-.74.58.57a15.9,15.9,0,0,0,11,3.67c.48-.11,4.7-1.14,4.25-3.35a.58.58,0,0,1,1.14-.23A2.79,2.79,0,0,1,151.3,29.83Z"/><path d="M106.2,46.11a2.05,2.05,0,0,1-2.34.67.57.57,0,0,1-.32-.75.58.58,0,0,1,.76-.32c.94.38,1.86-1.57,2-1.87a8.82,8.82,0,0,0-.85-6.36l-.44-.67.78-.21c1.61-.41,4.08-3.87,4.89-5.17a.58.58,0,0,1,1,.62c-.29.47-2.71,4.25-4.91,5.4a10.2,10.2,0,0,1,.66,6.7l0,.09a7.45,7.45,0,0,1-.87,1.49Z"/><path d="M110.53,51.08a2.08,2.08,0,0,1-2.36.68.58.58,0,0,1,.44-1.07c.94.39,1.87-1.56,2-1.87a8.87,8.87,0,0,0-.84-6.35l-.45-.68.79-.2c1.6-.42,4.07-3.88,4.89-5.17a.58.58,0,0,1,.8-.19.58.58,0,0,1,.18.8c-.3.47-2.72,4.25-4.91,5.41a10.24,10.24,0,0,1,.66,6.69l0,.09A6.19,6.19,0,0,1,110.53,51.08Z"/><path d="M115.77,66.6a2.82,2.82,0,0,1-2.58.91.58.58,0,1,1,.19-1.14c2.22.37,3.11-3.88,3.2-4.36a15.9,15.9,0,0,0-4-10.9l-.58-.56.72-.37c2.72-1.4,5.66-8.41,6.57-11a.58.58,0,0,1,.74-.35.57.57,0,0,1,.35.74c-.13.37-3.08,8.68-6.5,11.23a17.29,17.29,0,0,1,3.91,11.25v.1A9.72,9.72,0,0,1,115.77,66.6Z"/><path d="M113.86,25.25a3.84,3.84,0,0,1-.45.41.57.57,0,0,1-.81-.11.58.58,0,0,1,.11-.81c.22-.17,5.27-4.26-1.21-14.12a.58.58,0,1,1,1-.63C118.49,19.15,115.17,23.9,113.86,25.25Z"/><path d="M110.06,29.86c-2,2.07-7.94,3.72-15.37-.8a.58.58,0,0,1,.6-1c7.74,4.71,13.16,2.13,14.16.72a.58.58,0,1,1,.94.67A2.41,2.41,0,0,1,110.06,29.86Z"/><path d="M76.25,96l-.5-.83c-.24-.42-6-10.13-6.21-15.48-.21-5.94,3.08-8.77,6.24-8.89a5.88,5.88,0,0,1,4.62,2.07,10,10,0,0,1,2.23,6.35h0c.2,5.61-5.63,15.52-5.88,15.94Zm-.32-24h-.11a4.72,4.72,0,0,0-3.59,1.94,8.77,8.77,0,0,0-1.53,5.75c.15,4.17,4.12,11.54,5.55,14,1.41-2.54,5.38-10.08,5.22-14.44h0a8.75,8.75,0,0,0-1.93-5.62A4.74,4.74,0,0,0,75.93,72Z"/><path d="M75.75,72.33c-2.55,0-4.52-4.26-4.58-10s1.82-10,4.37-10,4.52,4.25,4.58,10S78.3,72.3,75.75,72.33Zm-.2-18.85c-1.57,0-3.28,3.66-3.22,8.88s1.84,8.83,3.41,8.81S79,67.5,79,62.29,77.12,53.46,75.55,53.48Z"/><path d="M75.55,52.73a5.87,5.87,0,1,1,5.8-5.93A5.87,5.87,0,0,1,75.55,52.73Zm-.12-10.58a4.71,4.71,0,1,0,4.76,4.66A4.72,4.72,0,0,0,75.43,42.15Z"/><path d="M79.62,50.74a.58.58,0,0,1-.4-.16,5.89,5.89,0,0,1-1.86-4.22,5.82,5.82,0,0,1,.68-2.8,6,6,0,0,1,.6-.92.59.59,0,0,1,.82-.09.57.57,0,0,1,.09.81,4.62,4.62,0,0,0-1,3A4.65,4.65,0,0,0,80,49.74a.57.57,0,0,1,0,.82A.56.56,0,0,1,79.62,50.74Z"/><path d="M77.34,42.49a.58.58,0,0,1-.57-.44A10.16,10.16,0,0,1,78,34.29c1.78-3.17,4.61-5.23,7.22-5.25h.05a.58.58,0,0,1,.58.58.57.57,0,0,1-.57.57h0c-2.17,0-4.67,1.89-6.23,4.66a9.18,9.18,0,0,0-1.14,6.88l0,.08v.09A.59.59,0,0,1,77.34,42.49Z"/><path d="M73.65,42.48a.52.52,0,0,1-.21,0,.58.58,0,0,1-.34-.74c.74-1.92.28-4.74-1.17-7.19-1.76-3-4.65-4.85-6.87-4.48a.57.57,0,0,1-.67-.47.59.59,0,0,1,.47-.67c2.72-.46,6,1.61,8.07,5,1.64,2.78,2.12,5.92,1.26,8.19A.58.58,0,0,1,73.65,42.48Z"/><path d="M71.54,51a.56.56,0,0,1-.44-.19.58.58,0,0,1,0-.82,4.69,4.69,0,0,0,.81-6,4,4,0,0,0-.45-.59.57.57,0,0,1,0-.81.56.56,0,0,1,.81,0,5,5,0,0,1,.58.75,5.88,5.88,0,0,1-1,7.49A.57.57,0,0,1,71.54,51Z"/><path d="M92.74,63.57a6,6,0,0,1-2.15-.42l-.09,0A10.23,10.23,0,0,1,86.09,58c-2.35.8-6.76,0-7.3-.15A.58.58,0,1,1,79,56.75c1.5.3,5.71.88,7.12,0l.69-.43.18.8a8.85,8.85,0,0,0,4,5c.32.1,2.37.77,2.74-.17a.58.58,0,0,1,1.08.41A2.08,2.08,0,0,1,92.74,63.57Z"/><path d="M93.4,70.13a6,6,0,0,1-2.16-.42l-.08,0a10.18,10.18,0,0,1-4.41-5.08c-2.35.8-6.76,0-7.3-.15a.58.58,0,1,1,.22-1.13c1.51.3,5.72.88,7.12,0l.69-.43.18.8a8.9,8.9,0,0,0,4,5c.31.1,2.37.77,2.74-.17a.57.57,0,1,1,1.07.41A2.06,2.06,0,0,1,93.4,70.13Z"/><path d="M101.07,84.61A9.71,9.71,0,0,1,96.5,83l-.08-.06a17.29,17.29,0,0,1-5.49-10.57c-4.2.74-12.26-2.84-12.63-3a.58.58,0,0,1-.29-.76.58.58,0,0,1,.77-.29c2.49,1.11,9.61,3.78,12.49,2.77L92,70.8v.81A15.94,15.94,0,0,0,97.18,82c.41.26,4.11,2.54,5.37.67a.58.58,0,0,1,.8-.15.57.57,0,0,1,.16.8A2.82,2.82,0,0,1,101.07,84.61Z"/><path d="M57.81,63.94a2,2,0,0,1-2.12-1.19A.59.59,0,0,1,56,62a.58.58,0,0,1,.76.32c.39.94,2.43.22,2.74.11a8.9,8.9,0,0,0,3.93-5.07l.17-.79.69.42c1.42.85,5.62.18,7.12-.15A.58.58,0,1,1,71.66,58c-.54.12-4.94,1-7.3.3a10.21,10.21,0,0,1-4.3,5.17l-.08,0a7.16,7.16,0,0,1-1.67.44Z"/><path d="M57.31,70.51a2.09,2.09,0,0,1-2.14-1.19.58.58,0,0,1,1.07-.44c.39.94,2.43.23,2.74.11a8.89,8.89,0,0,0,3.93-5.06l.17-.8.69.42c1.43.85,5.62.18,7.12-.15a.58.58,0,1,1,.25,1.13c-.54.12-4.93,1-7.3.3A10.21,10.21,0,0,1,59.54,70l-.08,0A5.91,5.91,0,0,1,57.31,70.51Z"/><path d="M50,85.15A2.82,2.82,0,0,1,47.48,84a.58.58,0,0,1,1-.66c1.3,1.84,5-.52,5.35-.79A15.93,15.93,0,0,0,58.7,72v-.82l.77.26c2.9,1,10-1.87,12.43-3a.58.58,0,0,1,.5,1c-.36.16-8.35,3.9-12.56,3.26a17.3,17.3,0,0,1-5.27,10.68l-.07.06A9.61,9.61,0,0,1,50,85.15Z"/><path d="M78,54.75c-.34,0-.55,0-.6,0a.58.58,0,0,1-.49-.66.57.57,0,0,1,.65-.49c.28,0,6.73.76,9.2-10.78a.58.58,0,0,1,.69-.44.59.59,0,0,1,.45.69C85.63,53.75,79.92,54.73,78,54.75Z"/><path d="M72.08,55.28c-2.87,0-8.22-3-10.22-11.5a.59.59,0,0,1,.43-.7.58.58,0,0,1,.7.43c2.08,8.81,7.72,10.86,9.43,10.58a.58.58,0,0,1,.19,1.15A4.39,4.39,0,0,1,72.08,55.28Z"/><path d="M12.14,56l.22-.94c.12-.47,2.81-11.44,6.41-15.39,4-4.4,8.35-4.11,10.68-2a5.84,5.84,0,0,1,1.85,4.71,9.9,9.9,0,0,1-2.86,6.1h0c-3.79,4.14-14.89,7.13-15.36,7.25ZM28.75,38.58l-.08-.08a4.77,4.77,0,0,0-3.93-1.13,8.75,8.75,0,0,0-5.11,3c-2.81,3.07-5.14,11.12-5.89,13.91,2.8-.83,10.91-3.43,13.85-6.64h0a8.86,8.86,0,0,0,2.56-5.37A4.75,4.75,0,0,0,28.75,38.58Z"/><path d="M28.36,38.73c-1.84-1.77-.25-6.21,3.7-10.32s8.32-5.88,10.16-4.11.25,6.2-3.7,10.31S30.2,40.49,28.36,38.73Zm13.06-13.6c-1.13-1.08-4.91.32-8.52,4.08S28,36.8,29.16,37.89s4.91-.32,8.52-4.08S42.55,26.22,41.42,25.13Z"/><path d="M41.94,24.6a5.87,5.87,0,1,1,8.3-.17A5.88,5.88,0,0,1,41.94,24.6ZM49.27,17a4.71,4.71,0,1,0,.13,6.66A4.72,4.72,0,0,0,49.27,17Z"/><path d="M46.24,26a.54.54,0,0,1-.17-.39,5.84,5.84,0,0,1,1.63-4.32,5.77,5.77,0,0,1,2.44-1.52,5.45,5.45,0,0,1,1.08-.23.57.57,0,1,1,.13,1.14,5.08,5.08,0,0,0-.86.19,4.78,4.78,0,0,0-2,1.22,4.66,4.66,0,0,0-1.31,3.47.58.58,0,0,1-1,.44Z"/><path d="M50.39,18.54a.58.58,0,0,1-.09-.71,10.14,10.14,0,0,1,6.32-4.66c3.49-1,7-.5,8.84,1.31l0,0a.58.58,0,0,1-.8.83l0,0c-1.56-1.51-4.65-1.93-7.71-1a9.12,9.12,0,0,0-5.63,4.1l0,.08-.06.06A.58.58,0,0,1,50.39,18.54Z"/><path d="M47.77,16a.58.58,0,0,1,.16-1c1.86-.85,3.51-3.19,4.19-5.94.83-3.36.09-6.73-1.77-8A.58.58,0,0,1,51,.1c2.27,1.57,3.19,5.38,2.24,9.24-.78,3.14-2.63,5.71-4.84,6.72A.56.56,0,0,1,47.77,16Z"/><path d="M40.33,20.52a.58.58,0,0,1,.42-1,4.7,4.7,0,0,0,3.58-1.44,4.65,4.65,0,0,0,1.21-2.28,5,5,0,0,0,.09-.73.58.58,0,0,1,1.16,0,5.26,5.26,0,0,1-.12.94,5.88,5.88,0,0,1-6,4.64A.57.57,0,0,1,40.33,20.52Z"/><path d="M46.61,44.38a6.16,6.16,0,0,1-1.24-1.81l0-.09a10.21,10.21,0,0,1,.41-6.71C43.52,34.69,41,31,40.65,30.55a.58.58,0,1,1,1-.66c.86,1.27,3.46,4.64,5.08,5l.8.17-.43.7a8.91,8.91,0,0,0-.61,6.38c.15.3,1.15,2.21,2.07,1.8a.57.57,0,0,1,.77.28A.58.58,0,0,1,49,45,2.08,2.08,0,0,1,46.61,44.38Z"/><path d="M42.49,49.52a6,6,0,0,1-1.25-1.81l0-.09a10.22,10.22,0,0,1,.41-6.71c-2.23-1.08-4.79-4.77-5.1-5.22a.59.59,0,0,1,.15-.81.57.57,0,0,1,.8.16c.87,1.26,3.46,4.63,5.09,5l.79.18-.42.69a8.78,8.78,0,0,0-.61,6.38c.14.3,1.14,2.21,2.07,1.8a.57.57,0,0,1,.76.29.58.58,0,0,1-.29.76A2.06,2.06,0,0,1,42.49,49.52Z"/><path d="M37.82,65.23a9.56,9.56,0,0,1-2.12-4.37v-.1a17.3,17.3,0,0,1,3.49-11.39c-3.52-2.41-6.77-10.61-6.92-11a.58.58,0,0,1,.33-.75.58.58,0,0,1,.75.33c1,2.54,4.21,9.43,7,10.73l.74.35-.57.58a15.94,15.94,0,0,0-3.64,11c.11.47,1.16,4.69,3.36,4.24a.59.59,0,0,1,.69.45.58.58,0,0,1-.45.68A2.82,2.82,0,0,1,37.82,65.23Z"/><path d="M21.43,20.17a2,2,0,0,1-.68-2.33.58.58,0,0,1,1.07.43c-.38.94,1.58,1.86,1.88,2a8.86,8.86,0,0,0,6.35-.86l.68-.45.2.78c.42,1.61,3.89,4.07,5.19,4.88a.58.58,0,0,1-.62,1c-.47-.29-4.25-2.7-5.42-4.89a10.2,10.2,0,0,1-6.69.67l-.09,0a7.45,7.45,0,0,1-1.49-.87A2.47,2.47,0,0,1,21.43,20.17Z"/><path d="M16.47,24.52a2.08,2.08,0,0,1-.69-2.36.58.58,0,0,1,.75-.32.59.59,0,0,1,.32.76c-.38.94,1.57,1.86,1.87,2a8.85,8.85,0,0,0,6.36-.86l.67-.44.21.78c.42,1.61,3.88,4.07,5.18,4.88a.58.58,0,1,1-.61,1c-.47-.29-4.26-2.7-5.42-4.9a10.14,10.14,0,0,1-6.69.68l-.09,0A6.15,6.15,0,0,1,16.47,24.52Z"/><path d="M1,29.8A2.8,2.8,0,0,1,0,27.22a.58.58,0,1,1,1.14.18c-.36,2.23,3.9,3.11,4.37,3.2a16,16,0,0,0,10.89-4.08l.56-.59.38.72c1.4,2.72,8.41,5.65,11,6.55A.58.58,0,0,1,28,34.29c-.38-.13-8.7-3.06-11.25-6.47A17.35,17.35,0,0,1,5.5,31.75H5.41A9.69,9.69,0,0,1,1,29.8Z"/><path d="M42.3,27.78a5.26,5.26,0,0,1-.41-.45.58.58,0,0,1,.11-.81.58.58,0,0,1,.81.11c.17.22,4.27,5.26,14.12-1.24a.57.57,0,1,1,.63,1C48.42,32.39,43.66,29.09,42.3,27.78Z"/><path d="M37.68,24c-2.07-2-3.73-7.93.77-15.37a.57.57,0,0,1,.79-.19.56.56,0,0,1,.19.79c-4.68,7.75-2.09,13.16-.68,14.16a.58.58,0,0,1-.66.95A4.1,4.1,0,0,1,37.68,24Z"/></g></g></svg>