<svg xmlns="http://www.w3.org/2000/svg" viewBox="0 0 135.1 103.96"><defs><style>.cls-1{fill:none;stroke:#000;stroke-linecap:round;stroke-miterlimit:10;}</style></defs><g id="Layer_2" data-name="Layer 2"><g id="Layer_9" data-name="Layer 9"><circle class="cls-1" cx="49.85" cy="54.11" r="49.35"/><circle class="cls-1" cx="49.85" cy="54.11" r="36.59"/><circle class="cls-1" cx="49.85" cy="54.11" r="24.63"/><circle class="cls-1" cx="49.85" cy="54.11" r="8.58"/><path d="M123.47,11.79l-1.74-.17L64.9,45.06l-.8.47-9.43,5.55h0l-.62.36-.63,1.12-.11.19h.27l1,0h.25l1-.58L63,47.93h0l1.89-1.11.8-.47,38.6-22.71,12.81.41L135.1,13Zm-6.8,10.74-10-.31,15.39-9.06,8.46.85Z"/><polygon points="68.28 52.63 54.82 52.73 54.56 52.73 53.58 52.74 53.31 52.74 53.42 52.56 54.05 51.44 54.17 51.23 60.69 39.73 60.9 40.09 64.04 45.42 64.1 45.53 64.8 46.72 64.86 46.82 67.94 52.06 68.28 52.63"/><path d="M110.11,10.37l-5.87,11.4L64.84,45l-.8.47L54.8,50.86h0l-.62.37-.12.21-.63,1.12a.74.74,0,0,0,.16.19l1,0,1-.57,8.15-4.8h0l1.09-.64.8-.48,57.64-33.9.23-.55L128.56,0Zm11.94.93-15.39,9.05,4.58-8.89,14.18-8Z"/><polygon points="67.94 52.06 55.8 52.15 55.55 52.16 54.05 52.17 54.67 51.08 54.67 51.08 54.79 50.86 54.8 50.86 60.9 40.09 64.04 45.42 64.84 44.95 64.9 45.06 65.6 46.24 65.66 46.35 64.86 46.82 67.94 52.06"/></g></g></svg>